/* XPM */
static char * close_active_xpm[] = {
"28 18 180 2",
"  	c None",
". 	c #8D8481",
"+ 	c #403F3A",
"@ 	c #403E39",
"# 	c #433D38",
"$ 	c #463F3A",
"% 	c #47403B",
"& 	c #4F4C49",
"* 	c #34312D",
"= 	c #35322E",
"- 	c #36322E",
"; 	c #36332F",
"> 	c #37342F",
", 	c #373430",
"' 	c #383430",
") 	c #383531",
"! 	c #393531",
"~ 	c #3A3632",
"{ 	c #3A3732",
"] 	c #3B3733",
"^ 	c #3B3833",
"/ 	c #3C3834",
"( 	c #3C3934",
"_ 	c #3D3935",
": 	c #4C413C",
"< 	c #817A76",
"[ 	c #423E39",
"} 	c #4E4D4A",
"| 	c #31302C",
"1 	c #31302D",
"2 	c #31312D",
"3 	c #32312D",
"4 	c #32312E",
"5 	c #33322E",
"6 	c #34332E",
"7 	c #34332F",
"8 	c #35342F",
"9 	c #353430",
"0 	c #363530",
"a 	c #363531",
"b 	c #373631",
"c 	c #373632",
"d 	c #383732",
"e 	c #383733",
"f 	c #393833",
"g 	c #393834",
"h 	c #3F3B36",
"i 	c #78736F",
"j 	c #3F3E39",
"k 	c #3E3D38",
"l 	c #4D4D4A",
"m 	c #2F2F2B",
"n 	c #302F2C",
"o 	c #33332E",
"p 	c #3C3A35",
"q 	c #706D69",
"r 	c #3D3C37",
"s 	c #4C4B49",
"t 	c #2E2D2A",
"u 	c #2F2E2B",
"v 	c #3A3936",
"w 	c #3B3A37",
"x 	c #32322E",
"y 	c #33322F",
"z 	c #3D3C38",
"A 	c #3D3C39",
"B 	c #353431",
"C 	c #363532",
"D 	c #373733",
"E 	c #383734",
"F 	c #3A3935",
"G 	c #676662",
"H 	c #4B4A47",
"I 	c #2D2C29",
"J 	c #2E2D29",
"K 	c #2D2C2A",
"L 	c #2E2D2B",
"M 	c #9A9A97",
"N 	c #3B3B37",
"O 	c #9B9A98",
"P 	c #343330",
"Q 	c #373633",
"R 	c #605F5B",
"S 	c #494846",
"T 	c #2B2A28",
"U 	c #2C2B28",
"V 	c #2E2E2A",
"W 	c #666563",
"X 	c #B8B8B7",
"Y 	c #9A9A99",
"Z 	c #42423E",
"` 	c #B8B8B6",
" .	c #686865",
"..	c #343430",
"+.	c #3B3A36",
"@.	c #5A5956",
"#.	c #464543",
"$.	c #2B2A27",
"%.	c #2C2B29",
"&.	c #2D2D2A",
"*.	c #74736D",
"=.	c #A7A7A3",
"-.	c #A0A09E",
";.	c #A8A8A4",
">.	c #75746E",
",.	c #32312F",
"'.	c #333230",
").	c #343431",
"!.	c #363533",
"~.	c #53524F",
"{.	c #444341",
"].	c #2A2927",
"^.	c #393835",
"/.	c #AFAFAB",
"(.	c #A2A1A0",
"_.	c #AFAFAC",
":.	c #302F2D",
"<.	c #31302E",
"[.	c #343331",
"}.	c #4C4B47",
"|.	c #42413F",
"1.	c #292826",
"2.	c #2A2926",
"3.	c #A5A5A0",
"4.	c #D7D7D2",
"5.	c #959590",
"6.	c #D6D6D2",
"7.	c #A6A6A0",
"8.	c #464542",
"9.	c #3F3E3C",
"0.	c #292825",
"a.	c #959588",
"b.	c #A1A095",
"c.	c #727266",
"d.	c #737267",
"e.	c #A3A397",
"f.	c #8E8D82",
"g.	c #31312E",
"h.	c #3E3D3B",
"i.	c #3C3B39",
"j.	c #282725",
"k.	c #626159",
"l.	c #706F64",
"m.	c #717065",
"n.	c #484842",
"o.	c #2F2E2C",
"p.	c #393836",
"q.	c #272624",
"r.	c #282726",
"s.	c #282724",
"t.	c #2F2E2A",
"u.	c #302F2B",
"v.	c #2E2E2C",
"w.	c #1D1C1B",
"x.	c #1D1D1B",
"y.	c #1F1E1C",
"z.	c #1F1E1D",
"A.	c #201F1D",
"B.	c #21201E",
"C.	c #22211F",
"D.	c #232220",
"E.	c #232320",
"F.	c #242321",
"G.	c #252422",
"H.	c #262523",
"I.	c #494845",
"J.	c #484745",
"K.	c #474744",
"L.	c #474643",
"M.	c #454441",
"N.	c #434340",
"O.	c #43423F",
"P.	c #42413E",
"Q.	c #403F3C",
"R.	c #3F3F3C",
"S.	c #3F3E3B",
"T.	c #3E3D3A",
"U.	c #3C3B38",
"V.	c #3B3B38",
"W.	c #373734",
". . . . . . . . . . . . . . . . . . . . . . . + @ # $ % ",
"& * * = = = - ; ; > , ' ' ) ! ~ { ] ^ / ( _ : < < @ [ [ ",
"} | | 1 2 3 3 4 5 6 7 7 8 9 0 a b c d e f g h $ % i j k ",
"l m n n n | | | 3 3 5 5 o 7 9 9 0 a c c d e g p [ q + r ",
"s t u u u n n n 1 1 v w x y y z A B a C c D E g F j G + ",
"H I I J K t L u u n M M v 4 N O M P 9 B C c Q e e r R + ",
"S T U U U I K t t V W X Y Z Y `  .y 7 ..9 B C c Q +.@.+ ",
"#.$.T T T %.%.%.I &.L *.=.-.;.>.4 ,.y '.P ).B C !.F ~.+ ",
"{.].].].].].T T %.%.I ^./.(._.N :.<.4 ,.y '.[.B B g }.+ ",
"|.1.1.2.].].$.T T %.C 3.4.5.6.7.^.1 <.4 y '.P ).B E 8.+ ",
"9.0.1.1.1.1.].].].T a.b.c.K d.e.f.n :.1 g.4 y P P Q h.+ ",
"i.j.j.j.0.1.1.2.].].k.l.U %.I m.n.u o.n 1 1 4 y y B ^.+ ",
"p.j.j.j.j.j.1.1.].].$.T T U %.K t L o.n :.1 4 ,.y P E + ",
"C q.j.j.j.j.r.1.1.2.].].T T U I K t L u o.:.1 <.4 y Q + ",
",.s.s.s.s.j.0.0.0.2.2.].$.T U %.I t t t.u u.n | 3 5 C + ",
"v.q.q.q.q.s.j.j.0.1.1.2.].$.$.U U I K t L u n :.1 4 B + ",
"w.x.y.y.z.A.A.B.B.C.C.D.E.F.G.H.H.q.j.1.].$.U I t u 9 + ",
"I.I.J.J.K.K.L.8.8.M.{.N.O.O.P.Q.R.S.T.A U.V.w ^.E W.P + "};
