/* XPM */
static char * close_inactive_xpm[] = {
"28 18 117 2",
"  	c None",
". 	c #61605D",
"+ 	c #5F5E5B",
"@ 	c #373633",
"# 	c #403F3C",
"$ 	c #32312E",
"% 	c #32312F",
"& 	c #32322F",
"* 	c #33322F",
"= 	c #333230",
"- 	c #343330",
"; 	c #343331",
"> 	c #353431",
", 	c #3F3E39",
"' 	c #3E3D38",
") 	c #383734",
"! 	c #41403D",
"~ 	c #333330",
"{ 	c #363532",
"] 	c #3E3C37",
"^ 	c #373532",
"/ 	c #353532",
"( 	c #353331",
"_ 	c #31302D",
": 	c #31302E",
"< 	c #31312E",
"[ 	c #363533",
"} 	c #373634",
"| 	c #363431",
"1 	c #3D3B36",
"2 	c #34322F",
"3 	c #3F3E3C",
"4 	c #302F2D",
"5 	c #686764",
"6 	c #363633",
"7 	c #353330",
"8 	c #3A3835",
"9 	c #343230",
"0 	c #302F2C",
"a 	c #4E4D4A",
"b 	c #777674",
"c 	c #686765",
"d 	c #3B3A37",
"e 	c #4E4D4B",
"f 	c #393734",
"g 	c #33332F",
"h 	c #3E3D3A",
"i 	c #30302D",
"j 	c #55544F",
"k 	c #6E6E6A",
"l 	c #6B6B68",
"m 	c #6F6E6B",
"n 	c #555450",
"o 	c #383632",
"p 	c #33322E",
"q 	c #3C3B39",
"r 	c #2F2E2B",
"s 	c #2F2E2C",
"t 	c #2F2F2C",
"u 	c #72716E",
"v 	c #6B6B69",
"w 	c #373733",
"x 	c #33312F",
"y 	c #373631",
"z 	c #32312D",
"A 	c #3B3A38",
"B 	c #6D6C69",
"C 	c #868582",
"D 	c #656460",
"E 	c #858581",
"F 	c #6D6D68",
"G 	c #353430",
"H 	c #3A3936",
"I 	c #65655D",
"J 	c #6B6A63",
"K 	c #53524B",
"L 	c #54534C",
"M 	c #6C6C64",
"N 	c #616059",
"O 	c #33312E",
"P 	c #34332F",
"Q 	c #31302C",
"R 	c #383835",
"S 	c #4B4A45",
"T 	c #52514B",
"U 	c #3F3E3A",
"V 	c #33322D",
"W 	c #30302C",
"X 	c #2E2D2A",
"Y 	c #2E2D2B",
"Z 	c #32312C",
"` 	c #2F2F2B",
" .	c #31302B",
"..	c #312F2C",
"+.	c #302F2A",
"@.	c #302E2B",
"#.	c #302E2A",
"$.	c #282825",
"%.	c #292825",
"&.	c #292826",
"*.	c #2A2926",
"=.	c #2A2927",
"-.	c #2B2A27",
";.	c #2B2A28",
">.	c #2B2B28",
",.	c #2C2B28",
"'.	c #2C2B29",
").	c #2D2C29",
"!.	c #2D2C2A",
"~.	c #302F2B",
"{.	c #2F2D29",
"].	c #3D3C39",
"^.	c #3C3B38",
"/.	c #3B3B38",
"(.	c #393835",
"_.	c #373734",
":.	c #2F2D2A",
". . . . . . . . . . . . . . . . . . . . . . + @ @ . . . ",
"# $ $ $ $ % % & * * * * = = - - - ; > > > > @ , ' @ ) ) ",
"! $ $ $ $ $ % % * * * * * ~ - - - ; > > > > { { { ] ^ ) ",
"! $ $ $ $ $ % % & * * * * ~ - - - ; > > > > { / > ] ( ) ",
"# _ _ _ _ _ : : < $ [ @ % % * } } = - - - - > > > | 1 2 ",
"3 4 4 _ 4 _ _ _ : < 5 5 6 % @ 5 5 = - - - ; > > 7 | 8 9 ",
"3 0 4 4 4 _ _ _ _ : a b c d c b e * - - - - > > 7 7 f g ",
"h 0 0 0 0 4 i 4 _ _ : j k l m n * * = - - - > > > 9 o p ",
"q r r r r s s t 0 0 4 { u v u w $ $ % * * * - - - x y z ",
"A r r r r s s s t 0 > B C D E F { $ $ & * * - - - 2 G $ ",
"H r r r r r s s s 0 I J K _ L M N $ $ * * * = - - O P Q ",
"R r r r r r r s s 0 S T 4 4 _ K U $ $ % * * * - - O V W ",
"@ X X X X Y Y Y r r r s s 0 0 0 4 _ _ : $ $ $ * * z Z ` ",
"> X X X Y X Y Y r r r s s 0 0 0 4 _ _ : $ $ $ & * $  ...",
"= X X X X Y Y Y r r r s s 0 0 4 4 _ _ _ $ $ $ % * _ +.@.",
"< X X X X X Y Y r r r r s 0 0 0 4 _ _ _ : $ $ % * _ r #.",
"$.%.&.&.&.*.*.=.=.-.-.;.>.,.'.).).!.X Y r r 0 0 _ ~.~.{.",
"h h h h ].].].^.^.^././.d d d H (.(.) ) _._.@ { { p r :."};
