/* XPM */
static char * hide_inactive_xpm[] = {
"28 18 59 1",
" 	c None",
".	c #61605D",
"+	c #383734",
"@	c #373633",
"#	c #363532",
"$	c #353431",
"%	c #343331",
"&	c #343330",
"*	c #333230",
"=	c #33322F",
"-	c #32322F",
";	c #353432",
">	c #333330",
",	c #32312F",
"'	c #32312E",
")	c #31302E",
"!	c #4F4E4B",
"~	c #595856",
"{	c #4D4C4A",
"]	c #575754",
"^	c #3A3936",
"/	c #737270",
"(	c #595855",
"_	c #484744",
":	c #7D7C7A",
"<	c #42413F",
"[	c #31302D",
"}	c #43423F",
"|	c #7D7C7B",
"1	c #3D3C39",
"2	c #7C7C7A",
"3	c #51514E",
"4	c #30302D",
"5	c #302F2D",
"6	c #302F2C",
"7	c #727270",
"8	c #575654",
"9	c #31312E",
"0	c #52514F",
"a	c #62615F",
"b	c #2F2E2C",
"c	c #2F2E2B",
"d	c #2E2E2B",
"e	c #2E2D2B",
"f	c #2E2D2A",
"g	c #2D2C29",
"h	c #2C2C29",
"i	c #2C2B28",
"j	c #2B2B28",
"k	c #2B2A28",
"l	c #2B2A27",
"m	c #2A2A27",
"n	c #2A2927",
"o	c #2A2926",
"p	c #373734",
"q	c #393835",
"r	c #3B3A37",
"s	c #3B3B38",
"t	c #3C3B38",
"............................",
"+++++++@@@####$$$$%&&&&*====",
"+++++++@@@####$$$$%&&&&*===-",
"+++++++@@@####$$$$%&&&&*===-",
"@@@@@@@###;$$$%&&&>*==,,''''",
"@@@@@@@###;$$$%&&&*===,,''')",
"@@@@@@@###;$$!~&&&*={],,''))",
"@@@@@@@###;$$^/(&>*_:<,''))[",
"#######$$$%&&&}|{=123)[[4566",
"#######$$%&&&&=_21789[[[5666",
"#######$$%&&&*==0:a9)[[4666b",
"#######$$%&&&*===''9[[45666b",
"$$$$$$$&&*===''')[[5666bccde",
"$$$$$$$&&*==,''')[[666bbccde",
"$$$$$$$&&===,'''[[5666bbcdee",
"$$$$$$$&&===,'')[[5666bbcdee",
"&&&&&&&-'9[[66ccefgghijklmno",
"&&&&&&&&&$$##@@pp+qq^^rrsstt"};
