/* XPM */
static char * hide_active_xpm[] = {
"28 18 143 2",
"  	c None",
". 	c #8D8481",
"+ 	c #433F3A",
"@ 	c #413E39",
"# 	c #413D38",
"$ 	c #403C37",
"% 	c #3F3B37",
"& 	c #3F3B36",
"* 	c #3E3A36",
"= 	c #3D3A35",
"- 	c #3D3934",
"; 	c #3C3934",
"> 	c #3C3834",
", 	c #3B3733",
"' 	c #3A3732",
") 	c #3A3632",
"! 	c #393632",
"~ 	c #393531",
"{ 	c #383430",
"] 	c #373430",
"^ 	c #37332F",
"/ 	c #3F3E39",
"( 	c #3E3D38",
"_ 	c #3D3C37",
": 	c #3C3B36",
"< 	c #3B3A36",
"[ 	c #3B3A35",
"} 	c #3A3935",
"| 	c #3A3934",
"1 	c #393834",
"2 	c #393833",
"3 	c #383733",
"4 	c #373632",
"5 	c #363531",
"6 	c #353530",
"7 	c #353430",
"8 	c #34342F",
"9 	c #34332F",
"0 	c #33322E",
"a 	c #383732",
"b 	c #363631",
"c 	c #35342F",
"d 	c #32312D",
"e 	c #3D3C38",
"f 	c #3C3B37",
"g 	c #3A3936",
"h 	c #393835",
"i 	c #383834",
"j 	c #373633",
"k 	c #363532",
"l 	c #353431",
"m 	c #343430",
"n 	c #343330",
"o 	c #33332F",
"p 	c #33322F",
"q 	c #32312E",
"r 	c #31302D",
"s 	c #383734",
"t 	c #302F2C",
"u 	c #373733",
"v 	c #6A6966",
"w 	c #7D7D7A",
"x 	c #666663",
"y 	c #7B7A78",
"z 	c #2F2F2B",
"A 	c #2F2E2B",
"B 	c #373634",
"C 	c #403F3C",
"D 	c #B1B1B0",
"E 	c #7C7C7A",
"F 	c #333230",
"G 	c #32322F",
"H 	c #5C5B59",
"I 	c #C5C5C4",
"J 	c #50504D",
"K 	c #302F2D",
"L 	c #2F2E2C",
"M 	c #2E2E2B",
"N 	c #2E2D2B",
"O 	c #2D2D2A",
"P 	c #363633",
"Q 	c #353432",
"R 	c #343431",
"S 	c #535250",
"T 	c #676664",
"U 	c #464543",
"V 	c #C5C4C4",
"W 	c #6F6F6D",
"X 	c #2E2D2A",
"Y 	c #2D2C2A",
"Z 	c #2C2B29",
"` 	c #343331",
" .	c #5C5C59",
"..	c #474643",
"+.	c #B0B0AF",
"@.	c #7A7A78",
"#.	c #706F6E",
"$.	c #C4C4C3",
"%.	c #908F8E",
"&.	c #2C2B28",
"*.	c #2B2A28",
"=.	c #2B2A27",
"-.	c #31302E",
";.	c #2A2927",
">.	c #32312F",
",.	c #30302D",
"'.	c #2D2C29",
").	c #2A2A27",
"!.	c #292926",
"~.	c #292826",
"{.	c #31302C",
"].	c #2F2E2A",
"^.	c #2D2C28",
"/.	c #2B2B27",
"(.	c #2A2926",
"_.	c #292825",
":.	c #282725",
"<.	c #272724",
"[.	c #31312E",
"}.	c #2F2F2C",
"|.	c #262623",
"1.	c #262523",
"2.	c #252422",
"3.	c #242321",
"4.	c #232220",
"5.	c #22211F",
"6.	c #21211F",
"7.	c #21201E",
"8.	c #201F1D",
"9.	c #373734",
"0.	c #3B3A37",
"a.	c #3B3B38",
"b.	c #3C3B38",
"c.	c #3E3D3A",
"d.	c #3F3E3B",
"e.	c #3F3F3C",
"f.	c #41403D",
"g.	c #42413E",
"h.	c #43423F",
"i.	c #434340",
"j.	c #444341",
"k.	c #454441",
"l.	c #464542",
". . . . . . . . . . . . . . . . . . . . . . . . . . . . ",
"+ + + + + + + @ # $ $ % & * = - ; > , ' ) ! ~ ~ { ] ] ^ ",
"/ / / / / / / ( _ : : < [ } | 1 2 3 4 4 5 5 6 7 8 9 9 0 ",
"( ( ( ( ( ( ( _ : < [ } | 1 2 3 a 4 b 5 6 7 c 9 0 0 0 d ",
"e e e e e e e f < g } h 1 i 3 j 4 k 5 l m n o p q q q r ",
"f f f f f f f < } h 1 s 3 3 4 k 5 l m n 9 p q q r r r t ",
"< < < < < < < } 1 s 3 u 4 v w l 7 n 9 p x y r r t t z A ",
"g g g g g g g h s B j j k C D E n F G H I J K t L M N O ",
"h h h h h h h s j P k Q l R S I T q U V W t L M X O Y Z ",
"h h h h h h h s j k k Q l ` n  .V ..+.@.t L M N O Y Z Z ",
"s s s s s s s j k l l n n p G q #.$.%.L M N O Y Z &.*.=.",
"j j j j j j j Q l ` n F p q -.r K t A N Y Y Z Z *.*.;.;.",
"j j j j j j j Q l n n p >.q r ,.t L N X Y '.Z &.*.).;.!.",
"k k k k k k k ` n p p q -.r t L A N Y '.Z &.*.).;.!.~.~.",
"5 5 5 5 5 5 5 n 9 0 0 d r {.t A ].X '.^.&./.=.).(._._._.",
"l l l l l l l F p q -.r t t A N X '.Z &.*.).;.!.~.:.:.<.",
"n n n n n n n [.r }.A X '.&.=.(.~.:.|.1.2.3.4.4.5.6.7.8.",
"n n n n n n n l k j 9.s h g 0.a.b.c.d.e.C f.g.h.i.j.k.l."};
