/* XPM */
static char * maximize_inactive_xpm[] = {
"28 18 45 1",
" 	c None",
".	c #61605D",
"+	c #32322F",
"@	c #32312F",
"#	c #32312E",
"$	c #31302E",
"%	c #31302D",
"&	c #30302D",
"*	c #302F2D",
"=	c #302F2C",
"-	c #2F2F2C",
";	c #2F2E2C",
">	c #504F4D",
",	c #7C7B79",
"'	c #60605E",
")	c #454442",
"!	c #7B7B79",
"~	c #3A3936",
"{	c #71706E",
"]	c #555452",
"^	c #2F2E2B",
"/	c #2E2D2B",
"(	c #3E3E3B",
"_	c #7B7A78",
":	c #494846",
"<	c #2E2D2A",
"[	c #393835",
"}	c #4F4E4C",
"|	c #333330",
"1	c #6F6F6D",
"2	c #545351",
"3	c #444340",
"4	c #3E3D3B",
"5	c #2D2D2A",
"6	c #2D2C2A",
"7	c #2D2C29",
"8	c #2A2926",
"9	c #292926",
"0	c #292826",
"a	c #282825",
"b	c #282725",
"c	c #3C3B38",
"d	c #3D3C39",
"e	c #3E3D3A",
"f	c #3F3E3B",
"............................",
"+@########$$$$$$$$$$$$$$####",
"@@########$$$$$$$$$$$$$$$$$#",
"@#######$$$$%%%%%%%%%%%%$$$$",
"$$%%%&******=============***",
"$%%%&***=====-----------====",
"%%&***====--;>,';;;;;;;;----",
"&***===---;;)!~{];;;;;;;;;;;",
";;;^^^^^///(_:<[_}<<<<<<////",
";^^^^^////|12<<<3_4<<<<<<<</",
"^^^^//////:2<<<<<:2<<<<<<<<<",
"^^^^////<<<<<<<<<<<<<<<<<<<<",
"/<<<556666777777777777777776",
"<<<5566666777777777777777776",
"<<<5566666777777777777777776",
"<<55666677777777777777777777",
"890000aaaaaabbbbbbbbbbbbaaaa",
"cdddeeeeeeefffffffffffffffee"};
