/* XPM */
static char * maximize_active_xpm[] = {
"28 18 86 1",
" 	c None",
".	c #8D8481",
"+	c #36332F",
"@	c #36322E",
"#	c #35322E",
"$	c #35312D",
"%	c #34312D",
"&	c #34302D",
"*	c #33322E",
"=	c #32322E",
"-	c #32312D",
";	c #31312D",
">	c #31302C",
",	c #302F2C",
"'	c #30302C",
")	c #302F2B",
"!	c #2F2E2B",
"~	c #2F2E2A",
"{	c #2F2F2B",
"]	c #31302D",
"^	c #2E2E2B",
"/	c #2E2D2A",
"(	c #2D2D2A",
"_	c #2D2C29",
":	c #2C2C29",
"<	c #2C2B28",
"[	c #2D2D29",
"}	c #2B2B28",
"|	c #2B2A27",
"1	c #6C6B69",
"2	c #C3C3C2",
"3	c #8D8C8B",
"4	c #2B2A28",
"5	c #2D2C2A",
"6	c #2C2B29",
"7	c #2A2A28",
"8	c #2A2A27",
"9	c #2A2927",
"0	c #555453",
"a	c #C2C2C2",
"b	c #3F3F3D",
"c	c #ADADAC",
"d	c #757573",
"e	c #292926",
"f	c #292826",
"g	c #494947",
"h	c #C2C2C1",
"i	c #5F5E5D",
"j	c #282826",
"k	c #3E3D3B",
"l	c #6A6968",
"m	c #282725",
"n	c #333331",
"o	c #ACACAB",
"p	c #757473",
"q	c #535351",
"r	c #494847",
"s	c #282825",
"t	c #5E5E5C",
"u	c #747472",
"v	c #272724",
"w	c #272624",
"x	c #5E5D5C",
"y	c #272725",
"z	c #262624",
"A	c #262523",
"B	c #282724",
"C	c #272623",
"D	c #262623",
"E	c #262522",
"F	c #252522",
"G	c #252422",
"H	c #1F1F1D",
"I	c #1F1E1C",
"J	c #1E1E1C",
"K	c #1E1D1C",
"L	c #1D1D1B",
"M	c #1D1C1B",
"N	c #1D1C1A",
"O	c #1C1C1A",
"P	c #464542",
"Q	c #474643",
"R	c #474744",
"S	c #484745",
"T	c #494845",
"U	c #4A4946",
"............................",
"+@####$$%%%%&&&&&&&&&&%%%%%%",
"*=--;;>>>>>>,,,,,,,,,,''>>>>",
"-;>>>'))))!!~~~~~~~~~~~~!!{)",
"]',,{!!!^^//((((_____(((///^",
",!!!//((___:<<<<<<<<<<<<<::_",
"//[_::<<<}|||123|||||||||||4",
"5:66}44778990abcdeeeeeee9999",
"<}449999fffghijkhlmmmmmmffff",
"449999ffffnopmmmqhrmmmmmmmjf",
"99effsmmmmtuvwwwwxuwwwwwvyym",
"ffsmmmywwwwwzzzzzzzzzzzzwwww",
"fjmmmmwwwwwwzzzzzzzzzzzzwwww",
"mmvwwwzzAAAAAAAAAAAAAAAAAAAA",
"BBvCCCDDEEEEEEEEEEEEEEEEEEEE",
"wwDAAAFFGGGGGGGGGGGGGGGGGGGG",
"HIJJKLLLMMNNOOOOOOOOOOOONNNM",
"PQQRSSSTTTTUUUUUUUUUUUUUUUTT"};
