/* XPM */
static char * menu_inactive_xpm[] = {
"28 18 72 1",
" 	c None",
".	c #61605D",
"+	c #373633",
"@	c #5F5E5B",
"#	c #383734",
"$	c #3E3D38",
"%	c #3F3E39",
"&	c #31312E",
"*	c #33322F",
"=	c #32322F",
"-	c #32312F",
";	c #373532",
">	c #3E3C37",
",	c #353331",
"'	c #34322F",
")	c #3D3B36",
"!	c #363431",
"~	c #343230",
"{	c #3A3835",
"]	c #33332F",
"^	c #393734",
"/	c #353330",
"(	c #6B6B68",
"_	c #33322E",
":	c #383632",
"<	c #32312D",
"[	c #373631",
"}	c #33312F",
"|	c #32312E",
"1	c #353430",
"2	c #31302C",
"3	c #34332F",
"4	c #33312E",
"5	c #30302C",
"6	c #33322D",
"7	c #2F2F2B",
"8	c #32312C",
"9	c #31302E",
"0	c #31302D",
"a	c #312F2C",
"b	c #31302B",
"c	c #302E2B",
"d	c #302F2A",
"e	c #302E2A",
"f	c #2F2E2B",
"g	c #2F2D29",
"h	c #302F2B",
"i	c #302F2C",
"j	c #2E2D2B",
"k	c #2E2D2A",
"l	c #2D2C2A",
"m	c #2D2C29",
"n	c #2C2B29",
"o	c #2C2B28",
"p	c #2B2B28",
"q	c #2B2A28",
"r	c #2B2A27",
"s	c #2A2927",
"t	c #2A2926",
"u	c #292826",
"v	c #292825",
"w	c #282825",
"x	c #2F2D2A",
"y	c #363532",
"z	c #373734",
"A	c #393835",
"B	c #3A3936",
"C	c #3B3A37",
"D	c #3B3B38",
"E	c #3C3B38",
"F	c #3D3C39",
"G	c #3E3D3A",
"...++@......................",
"##+$%+&&&&&&&&&&****=-&&&&&&",
"#;>&&&&&&&&&&&&&&&&&&&&&&&&&",
"#,>&&&&&&&&&&&&&&&&&&&&&&&&&",
"')!&&&&&&&&&&&&&&&&&&&&&&&&&",
"~{!&&&&&&&&&&&&&&&&&&&&&&&&&",
"]^/&&&&&&&&&(((&&&&&&&&&&&&&",
"_:~&&&&&&&&&(((&&&&&&&&&&&&&",
"<[}&&&&&&&&&(((&&&&&&&&&&&&&",
"|1'&&&&&&&&&&&&&&&&&&&&&&&&&",
"234&&&&&&||&&&&&&&&&&&&&&&&&",
"564&&&&&&||&&&&&&&&&&&&&&&&&",
"78<&&&&&900&&&&&&&&&&&&&&&&&",
"ab|&&&&&900&&&&&&&&&&&&&&&&&",
"cd0&&&&&000&&&&&&&&&&&&&&&&&",
"ef0&&&&&000&&&&&&&&&&&&&&&&&",
"ghh0iiffjklmmnopqrrssttuuuvw",
"xf_yy+zz##AABCCCDDEEEFFFGGGG"};
