/* XPM */
static char * menu_active_xpm[] = {
"28 18 128 2",
"  	c None",
". 	c #47403B",
"+ 	c #463F3A",
"@ 	c #433D38",
"# 	c #403E39",
"$ 	c #403F3A",
"% 	c #8D8481",
"& 	c #423E39",
"* 	c #817A76",
"= 	c #4C413C",
"- 	c #3D3935",
"; 	c #3C3934",
"> 	c #3C3834",
", 	c #3B3833",
"' 	c #3B3733",
") 	c #3A3732",
"! 	c #3A3632",
"~ 	c #393531",
"{ 	c #383531",
"] 	c #383430",
"^ 	c #373430",
"/ 	c #37342F",
"( 	c #36332F",
"_ 	c #36322E",
": 	c #35322E",
"< 	c #34312D",
"[ 	c #3D3C38",
"} 	c #3E3D38",
"| 	c #3F3E39",
"1 	c #78736F",
"2 	c #3F3B36",
"3 	c #393834",
"4 	c #393833",
"5 	c #383733",
"6 	c #383732",
"7 	c #373632",
"8 	c #373631",
"9 	c #363531",
"0 	c #363530",
"a 	c #353430",
"b 	c #35342F",
"c 	c #34332F",
"d 	c #34332E",
"e 	c #343330",
"f 	c #3D3C37",
"g 	c #706D69",
"h 	c #3C3A35",
"i 	c #33332E",
"j 	c #33322E",
"k 	c #32312D",
"l 	c #676662",
"m 	c #3A3935",
"n 	c #383734",
"o 	c #373733",
"p 	c #363532",
"q 	c #3A3936",
"r 	c #31302D",
"s 	c #605F5B",
"t 	c #373633",
"u 	c #353431",
"v 	c #302F2C",
"w 	c #5A5956",
"x 	c #3B3A36",
"y 	c #343430",
"z 	c #9A9A99",
"A 	c #53524F",
"B 	c #363533",
"C 	c #343431",
"D 	c #333230",
"E 	c #33322F",
"F 	c #4C4B47",
"G 	c #343331",
"H 	c #32312F",
"I 	c #32312E",
"J 	c #464542",
"K 	c #31302E",
"L 	c #3E3D3B",
"M 	c #31312E",
"N 	c #302F2D",
"O 	c #2B2A28",
"P 	c #393835",
"Q 	c #2F2E2C",
"R 	c #2A2927",
"S 	c #2E2D2B",
"T 	c #2E2D2A",
"U 	c #2D2C2A",
"V 	c #2C2B29",
"W 	c #2C2B28",
"X 	c #2B2A27",
"Y 	c #2F2E2B",
"Z 	c #2D2C29",
"` 	c #2A2926",
" .	c #31302C",
"..	c #302F2B",
"+.	c #2F2E2A",
"@.	c #292826",
"#.	c #282725",
"$.	c #272624",
"%.	c #262523",
"&.	c #252422",
"*.	c #242321",
"=.	c #232320",
"-.	c #232220",
";.	c #22211F",
">.	c #21201E",
",.	c #201F1D",
"'.	c #1F1E1D",
").	c #1F1E1C",
"!.	c #1D1D1B",
"~.	c #1D1C1B",
"{.	c #373734",
"].	c #3B3A37",
"^.	c #3B3B38",
"/.	c #3C3B38",
"(.	c #3D3C39",
"_.	c #3E3D3A",
":.	c #3F3E3B",
"<.	c #3F3F3C",
"[.	c #403F3C",
"}.	c #42413E",
"|.	c #43423F",
"1.	c #434340",
"2.	c #444341",
"3.	c #454441",
"4.	c #474643",
"5.	c #474744",
"6.	c #484745",
"7.	c #494845",
". + @ # $ % % % % % % % % % % % % % % % % % % % % % % % ",
"& & # * * = - ; > , ' ) ! ~ { ] ] ^ / ( ( _ : : : < [ [ ",
"} | 1 . + 2 3 4 5 6 7 8 9 0 a b c c d e e e e e e e [ [ ",
"f $ g & h 3 5 6 7 7 9 0 a a c i j j k e e e e e e e [ [ ",
"$ l | m 3 n o 7 p 9 q q q q q q q q r e e e e e e e [ [ ",
"$ s f 5 5 t 7 p u a q q q q q q q q v e e e e e e e [ [ ",
"$ w x t 7 p u a y c q q z z z q q q q e e e e e e e [ [ ",
"$ A m B p u C e D E q q z z z q q q q e e e e e e e [ [ ",
"$ F 3 u u G D E H I q q z z z q q q q e e e e e e e [ [ ",
"$ J n u C e D E I K q q q q q q q q q e e e e e e e [ [ ",
"$ L t e e E I M r N q q q q q q q q O e e e e e e e [ [ ",
"$ P u E E I r r v Q q q q q q q q q R e e e e e e e [ [ ",
"$ n e E H I r N v Q S T U V W O O X R e e e e e e e [ [ ",
"$ t E I K r N Q Y S T U Z W O O R R ` e e e e e e e [ [ ",
"$ p j k  .v ..Y +.T T Z V W O X R ` ` e e e e e e e [ [ ",
"$ u I r N v Y S T U Z W W X X R ` @.@.e e e e e e e [ [ ",
"$ a Y T Z W X R @.#.$.%.%.&.*.=.-.;.;.>.>.,.,.'.).).!.~.",
"$ e {.n P ].^./.(._.:.<.[.}.|.|.1.2.3.J J 4.5.5.6.6.7.7."};
