/* XPM */
static char * title_5_active_xpm[] = {
"8 24 19 1",
" 	c None",
".	c #8D8481",
"+	c #4C413C",
"@	c #47403B",
"#	c #433F3A",
"$	c #3F3E39",
"%	c #3E3D38",
"&	c #3D3C38",
"*	c #3C3B37",
"=	c #3B3A36",
"-	c #3A3936",
";	c #393835",
">	c #383734",
",	c #373633",
"'	c #363532",
")	c #363531",
"!	c #353431",
"~	c #343330",
"{	c #33322F",
"........",
"++++++++",
"@@@@@@@@",
"########",
"$$$$$$$$",
"%%%%%%%%",
"&&&&&&&&",
"********",
"========",
"--------",
";;;;;;;;",
";;;;;;;;",
">>>>>>>>",
",,,,,,,,",
",,,,,,,,",
"''''''''",
"))))))))",
"!!!!!!!!",
"~~~~~~~~",
"~~~~~~~~",
"~~~~~~~~",
"~~~~~~~~",
"{{{{{{{{",
"{{{{{{{{"};
